<mxfile host="Electron" modified="2024-07-09T10:24:54.073Z" agent="Mozilla/5.0 (Windows NT 10.0; Win64; x64) AppleWebKit/537.36 (KHTML, like Gecko) draw.io/22.0.2 Chrome/114.0.5735.289 Electron/25.8.4 Safari/537.36" etag="ibxC_rIJhM_d6knVeiIh" version="22.0.2" type="device">
  <diagram name="ページ1" id="NKPZZOQx5-XQ6p6UbQd2">
    <mxGraphModel dx="823" dy="530" grid="1" gridSize="10" guides="1" tooltips="1" connect="1" arrows="1" fold="1" page="1" pageScale="1" pageWidth="827" pageHeight="1169" math="0" shadow="0">
      <root>
        <mxCell id="0" />
        <mxCell id="1" parent="0" />
        <mxCell id="8J1VvUq5-NI3Xs663vR5-26" value="" style="rounded=0;whiteSpace=wrap;html=1;" vertex="1" parent="1">
          <mxGeometry x="270" y="340" width="300" height="610" as="geometry" />
        </mxCell>
        <mxCell id="8J1VvUq5-NI3Xs663vR5-25" value="" style="rounded=0;whiteSpace=wrap;html=1;" vertex="1" parent="1">
          <mxGeometry x="30" y="340" width="240" height="610" as="geometry" />
        </mxCell>
        <mxCell id="0mSqBatTHCEcBpTO_uF6-18" value="lesson10-2" style="rounded=0;whiteSpace=wrap;html=1;" parent="1" vertex="1">
          <mxGeometry x="10" y="210" width="120" height="60" as="geometry" />
        </mxCell>
        <mxCell id="8J1VvUq5-NI3Xs663vR5-1" value="" style="ellipse;whiteSpace=wrap;html=1;aspect=fixed;fillColor=#000000;" vertex="1" parent="1">
          <mxGeometry x="130" y="370" width="30" height="30" as="geometry" />
        </mxCell>
        <mxCell id="8J1VvUq5-NI3Xs663vR5-3" value="" style="ellipse;whiteSpace=wrap;html=1;aspect=fixed;" vertex="1" parent="1">
          <mxGeometry x="125" y="890" width="40" height="40" as="geometry" />
        </mxCell>
        <mxCell id="8J1VvUq5-NI3Xs663vR5-2" value="" style="ellipse;whiteSpace=wrap;html=1;aspect=fixed;fillColor=#000000;" vertex="1" parent="1">
          <mxGeometry x="130" y="895" width="30" height="30" as="geometry" />
        </mxCell>
        <mxCell id="8J1VvUq5-NI3Xs663vR5-4" value="料金を支払う" style="rounded=1;whiteSpace=wrap;html=1;" vertex="1" parent="1">
          <mxGeometry x="100" y="460" width="90" height="40" as="geometry" />
        </mxCell>
        <mxCell id="8J1VvUq5-NI3Xs663vR5-7" value="" style="endArrow=classic;html=1;rounded=0;exitX=0.5;exitY=1;exitDx=0;exitDy=0;" edge="1" parent="1" source="8J1VvUq5-NI3Xs663vR5-1">
          <mxGeometry width="50" height="50" relative="1" as="geometry">
            <mxPoint x="145" y="495" as="sourcePoint" />
            <mxPoint x="145" y="460" as="targetPoint" />
          </mxGeometry>
        </mxCell>
        <mxCell id="8J1VvUq5-NI3Xs663vR5-8" value="商品を選択する" style="rounded=1;whiteSpace=wrap;html=1;" vertex="1" parent="1">
          <mxGeometry x="100" y="700" width="90" height="40" as="geometry" />
        </mxCell>
        <mxCell id="8J1VvUq5-NI3Xs663vR5-10" value="" style="endArrow=classic;html=1;rounded=0;exitX=1;exitY=0.5;exitDx=0;exitDy=0;entryX=0;entryY=0.5;entryDx=0;entryDy=0;" edge="1" parent="1" source="8J1VvUq5-NI3Xs663vR5-8" target="8J1VvUq5-NI3Xs663vR5-14">
          <mxGeometry width="50" height="50" relative="1" as="geometry">
            <mxPoint x="280" y="620" as="sourcePoint" />
            <mxPoint x="360" y="650" as="targetPoint" />
          </mxGeometry>
        </mxCell>
        <mxCell id="8J1VvUq5-NI3Xs663vR5-11" value="商品を受け取る" style="rounded=1;whiteSpace=wrap;html=1;" vertex="1" parent="1">
          <mxGeometry x="100" y="800" width="90" height="40" as="geometry" />
        </mxCell>
        <mxCell id="8J1VvUq5-NI3Xs663vR5-12" value="" style="endArrow=classic;html=1;rounded=0;exitX=0.5;exitY=1;exitDx=0;exitDy=0;entryX=0.5;entryY=0;entryDx=0;entryDy=0;" edge="1" parent="1" source="8J1VvUq5-NI3Xs663vR5-11" target="8J1VvUq5-NI3Xs663vR5-3">
          <mxGeometry width="50" height="50" relative="1" as="geometry">
            <mxPoint x="280" y="800" as="sourcePoint" />
            <mxPoint x="330" y="750" as="targetPoint" />
          </mxGeometry>
        </mxCell>
        <mxCell id="8J1VvUq5-NI3Xs663vR5-13" value="" style="endArrow=classic;html=1;rounded=0;entryX=1;entryY=0.5;entryDx=0;entryDy=0;" edge="1" parent="1" target="8J1VvUq5-NI3Xs663vR5-11">
          <mxGeometry width="50" height="50" relative="1" as="geometry">
            <mxPoint x="360" y="820" as="sourcePoint" />
            <mxPoint x="330" y="670" as="targetPoint" />
          </mxGeometry>
        </mxCell>
        <mxCell id="8J1VvUq5-NI3Xs663vR5-14" value="選択された商品を確認" style="rounded=1;whiteSpace=wrap;html=1;" vertex="1" parent="1">
          <mxGeometry x="360" y="700" width="130" height="40" as="geometry" />
        </mxCell>
        <mxCell id="8J1VvUq5-NI3Xs663vR5-15" value="" style="endArrow=classic;html=1;rounded=0;exitX=0.5;exitY=1;exitDx=0;exitDy=0;entryX=0.435;entryY=0.044;entryDx=0;entryDy=0;entryPerimeter=0;" edge="1" parent="1" source="8J1VvUq5-NI3Xs663vR5-14" target="8J1VvUq5-NI3Xs663vR5-16">
          <mxGeometry width="50" height="50" relative="1" as="geometry">
            <mxPoint x="280" y="710" as="sourcePoint" />
            <mxPoint x="425" y="790" as="targetPoint" />
          </mxGeometry>
        </mxCell>
        <mxCell id="8J1VvUq5-NI3Xs663vR5-16" value="商品を取り出し口に運ぶ" style="rounded=1;whiteSpace=wrap;html=1;" vertex="1" parent="1">
          <mxGeometry x="360" y="800" width="150" height="40" as="geometry" />
        </mxCell>
        <mxCell id="8J1VvUq5-NI3Xs663vR5-17" value="支払われた料金で買える商品を表示" style="rounded=1;whiteSpace=wrap;html=1;" vertex="1" parent="1">
          <mxGeometry x="355" y="460" width="140" height="40" as="geometry" />
        </mxCell>
        <mxCell id="8J1VvUq5-NI3Xs663vR5-19" value="" style="endArrow=classic;html=1;rounded=0;exitX=1;exitY=0.5;exitDx=0;exitDy=0;entryX=0;entryY=0.5;entryDx=0;entryDy=0;" edge="1" parent="1" source="8J1VvUq5-NI3Xs663vR5-4" target="8J1VvUq5-NI3Xs663vR5-17">
          <mxGeometry width="50" height="50" relative="1" as="geometry">
            <mxPoint x="290" y="552.5" as="sourcePoint" />
            <mxPoint x="360" y="600" as="targetPoint" />
          </mxGeometry>
        </mxCell>
        <mxCell id="8J1VvUq5-NI3Xs663vR5-20" value="" style="endArrow=classic;html=1;rounded=0;entryX=1;entryY=0.5;entryDx=0;entryDy=0;exitX=0.5;exitY=1;exitDx=0;exitDy=0;" edge="1" parent="1" source="8J1VvUq5-NI3Xs663vR5-17" target="8J1VvUq5-NI3Xs663vR5-28">
          <mxGeometry width="50" height="50" relative="1" as="geometry">
            <mxPoint x="310" y="650" as="sourcePoint" />
            <mxPoint x="360" y="600" as="targetPoint" />
            <Array as="points">
              <mxPoint x="425" y="560" />
            </Array>
          </mxGeometry>
        </mxCell>
        <mxCell id="8J1VvUq5-NI3Xs663vR5-28" value="目的の商品が買えるか確認する" style="rounded=1;whiteSpace=wrap;html=1;" vertex="1" parent="1">
          <mxGeometry x="80" y="535" width="130" height="50" as="geometry" />
        </mxCell>
        <mxCell id="8J1VvUq5-NI3Xs663vR5-29" value="" style="rhombus;whiteSpace=wrap;html=1;" vertex="1" parent="1">
          <mxGeometry x="122.5" y="625" width="45" height="40" as="geometry" />
        </mxCell>
        <mxCell id="8J1VvUq5-NI3Xs663vR5-30" value="" style="endArrow=classic;html=1;rounded=0;exitX=0.5;exitY=1;exitDx=0;exitDy=0;entryX=0.5;entryY=0;entryDx=0;entryDy=0;" edge="1" parent="1" source="8J1VvUq5-NI3Xs663vR5-28" target="8J1VvUq5-NI3Xs663vR5-29">
          <mxGeometry width="50" height="50" relative="1" as="geometry">
            <mxPoint x="290" y="680" as="sourcePoint" />
            <mxPoint x="340" y="630" as="targetPoint" />
          </mxGeometry>
        </mxCell>
        <mxCell id="8J1VvUq5-NI3Xs663vR5-31" value="" style="endArrow=classic;html=1;rounded=0;exitX=0.5;exitY=1;exitDx=0;exitDy=0;" edge="1" parent="1">
          <mxGeometry width="50" height="50" relative="1" as="geometry">
            <mxPoint x="144.5" y="665" as="sourcePoint" />
            <mxPoint x="145" y="700" as="targetPoint" />
          </mxGeometry>
        </mxCell>
        <mxCell id="8J1VvUq5-NI3Xs663vR5-32" value="【OK】" style="text;html=1;align=center;verticalAlign=middle;resizable=0;points=[];autosize=1;strokeColor=none;fillColor=none;" vertex="1" parent="1">
          <mxGeometry x="140" y="665" width="60" height="30" as="geometry" />
        </mxCell>
        <mxCell id="8J1VvUq5-NI3Xs663vR5-33" value="【NG】" style="text;html=1;align=center;verticalAlign=middle;resizable=0;points=[];autosize=1;strokeColor=none;fillColor=none;" vertex="1" parent="1">
          <mxGeometry x="60" y="620" width="70" height="30" as="geometry" />
        </mxCell>
        <mxCell id="8J1VvUq5-NI3Xs663vR5-34" value="" style="endArrow=none;html=1;rounded=0;entryX=0;entryY=0.5;entryDx=0;entryDy=0;exitX=0.125;exitY=0.279;exitDx=0;exitDy=0;exitPerimeter=0;" edge="1" parent="1" source="8J1VvUq5-NI3Xs663vR5-25" target="8J1VvUq5-NI3Xs663vR5-29">
          <mxGeometry width="50" height="50" relative="1" as="geometry">
            <mxPoint x="240" y="680" as="sourcePoint" />
            <mxPoint x="290" y="630" as="targetPoint" />
            <Array as="points">
              <mxPoint x="60" y="645" />
            </Array>
          </mxGeometry>
        </mxCell>
        <mxCell id="8J1VvUq5-NI3Xs663vR5-37" value="" style="endArrow=classic;html=1;rounded=0;entryX=0;entryY=0.5;entryDx=0;entryDy=0;" edge="1" parent="1" target="8J1VvUq5-NI3Xs663vR5-4">
          <mxGeometry width="50" height="50" relative="1" as="geometry">
            <mxPoint x="60" y="510" as="sourcePoint" />
            <mxPoint x="230" y="520" as="targetPoint" />
            <Array as="points">
              <mxPoint x="60" y="480" />
            </Array>
          </mxGeometry>
        </mxCell>
        <mxCell id="8J1VvUq5-NI3Xs663vR5-38" value="利用者" style="rounded=0;whiteSpace=wrap;html=1;" vertex="1" parent="1">
          <mxGeometry x="30" y="300" width="240" height="40" as="geometry" />
        </mxCell>
        <mxCell id="8J1VvUq5-NI3Xs663vR5-39" value="自販機" style="rounded=0;whiteSpace=wrap;html=1;" vertex="1" parent="1">
          <mxGeometry x="270" y="300" width="300" height="40" as="geometry" />
        </mxCell>
      </root>
    </mxGraphModel>
  </diagram>
</mxfile>
